<svg width="342" height="376" viewBox="0 0 342 376" fill="none" xmlns="http://www.w3.org/2000/svg">
<g clip-path="url(#clip0_808_454)">
<path d="M237.113 76.9574C213.442 73.1798 186.486 71.1641 158.414 71.1641C132.722 71.1641 107.97 72.8498 85.8176 76.0282C85.8228 75.688 85.8277 75.3479 85.8429 75.0077C86.4301 55.2616 94.7179 36.5286 108.935 22.8124C123.152 9.09621 142.17 1.48508 161.924 1.60576C181.678 1.72645 200.602 9.56937 214.65 23.4582C228.698 37.3471 236.757 56.18 237.103 75.9318C237.108 76.277 237.113 76.6172 237.113 76.9574Z" fill="#00BFA6"/>
<g opacity="0.1">
<path d="M171.386 1.57754C160.88 0.158391 150.192 0.962725 140.016 3.93841C129.84 6.9141 120.403 11.9947 112.317 18.851C104.23 25.7074 97.6742 34.1863 93.0742 43.7384C88.4742 53.2906 85.9325 63.7026 85.614 74.2999C85.5987 74.6401 85.5937 74.9803 85.5887 75.3205C92.17 74.3762 98.9852 73.567 105.982 72.8913C106.838 55.2367 113.847 38.4389 125.794 25.4125C137.741 12.3861 153.872 3.9534 171.386 1.57754Z" fill="white"/>
</g>
<path d="M270.207 82.9589C259.311 80.005 248.259 77.6591 237.103 75.9318C218.817 73.0982 200.382 71.3266 181.892 70.6259C174.189 70.3112 166.345 70.1487 158.414 70.1487C152.128 70.1487 145.893 70.2502 139.744 70.4533C121.707 70.9862 103.713 72.5066 85.8429 75.0077C72.6143 76.8293 59.514 79.4849 46.6203 82.9589C16.5572 91.2705 6.10352e-05 102.41 6.10352e-05 114.322C6.10352e-05 126.233 16.5573 137.373 46.6203 145.685C67.7625 151.534 93.8296 155.519 122.233 157.347C133.956 158.109 146.076 158.495 158.414 158.495C170.792 158.495 182.953 158.104 194.712 157.342C220.561 155.672 244.475 152.214 264.49 147.187C264.597 147.157 264.698 147.132 264.805 147.106C266.155 146.771 267.486 146.421 268.801 146.07C269.273 145.938 269.74 145.812 270.207 145.685C270.233 145.674 270.26 145.665 270.288 145.659C270.735 145.537 271.177 145.41 271.619 145.289C272.502 145.035 273.375 144.786 274.233 144.527C274.274 144.517 274.309 144.507 274.345 144.496C275.091 144.273 275.823 144.05 276.549 143.826C277.143 143.638 277.732 143.456 278.316 143.268C278.742 143.131 279.164 142.994 279.58 142.856C279.885 142.755 280.184 142.658 280.479 142.557C280.88 142.425 281.281 142.288 281.677 142.151C281.844 142.095 282.012 142.039 282.174 141.978C282.555 141.851 282.926 141.719 283.296 141.587C283.698 141.445 284.099 141.298 284.495 141.156C284.825 141.039 285.155 140.917 285.48 140.795C285.754 140.688 286.023 140.587 286.297 140.485C287.043 140.206 287.775 139.917 288.496 139.632C288.856 139.485 289.217 139.343 289.572 139.196C289.922 139.054 290.278 138.906 290.623 138.759C291.192 138.52 291.75 138.282 292.299 138.043C292.563 137.921 292.832 137.805 293.091 137.693C293.289 137.601 293.482 137.515 293.68 137.424C293.822 137.363 293.964 137.297 294.101 137.231C294.614 136.997 295.122 136.759 295.619 136.52C297.528 135.606 299.311 134.672 300.966 133.717C311.349 127.772 316.827 121.176 316.827 114.322C316.827 102.41 300.27 91.2705 270.207 82.9589ZM269.933 144.71C248.765 150.564 222.627 154.55 194.148 156.362C182.567 157.098 170.594 157.479 158.414 157.479C146.274 157.479 134.342 157.104 122.796 156.367C94.2714 154.56 68.0925 150.574 46.8945 144.71C17.3087 136.525 1.01553 125.736 1.01553 114.322C1.01719 113.313 1.14342 112.309 1.39138 111.331C3.98063 101.034 19.9084 91.3974 46.8945 83.9337C59.6907 80.4869 72.6906 77.8465 85.8176 76.0283C103.796 73.513 121.898 71.9875 140.044 71.4586C146.096 71.2606 152.219 71.1625 158.414 71.1642C166.238 71.1642 173.976 71.3215 181.582 71.6262C200.18 72.3206 218.722 74.1007 237.113 76.9574C248.173 78.677 259.13 81.006 269.933 83.9337C296.914 91.3974 312.837 101.029 315.431 111.321C315.683 112.301 315.811 113.309 315.812 114.322C315.812 125.736 299.519 136.525 269.933 144.71Z" fill="#3F3D56"/>
<path d="M316.538 114.784C316.538 121.567 310.948 127.985 300.966 133.717C299.305 134.672 297.518 135.606 295.619 136.52C295.122 136.759 294.614 136.997 294.101 137.231C293.964 137.297 293.822 137.363 293.68 137.424C293.482 137.515 293.289 137.601 293.091 137.693C292.832 137.805 292.563 137.921 292.299 138.043C291.75 138.282 291.192 138.52 290.623 138.759C290.278 138.906 289.922 139.054 289.572 139.196C289.217 139.343 288.856 139.485 288.496 139.632C287.775 139.917 287.043 140.206 286.297 140.485C286.023 140.587 285.754 140.688 285.48 140.795C285.155 140.917 284.825 141.039 284.495 141.156C284.099 141.298 283.698 141.445 283.296 141.587C282.926 141.719 282.555 141.851 282.174 141.978C282.012 142.039 281.844 142.095 281.677 142.151C281.281 142.288 280.88 142.425 280.479 142.557C280.184 142.658 279.885 142.755 279.58 142.856C279.163 142.994 278.742 143.131 278.315 143.268C277.732 143.456 277.143 143.638 276.549 143.826C275.823 144.05 275.091 144.273 274.345 144.496C274.309 144.507 274.274 144.517 274.233 144.527C273.375 144.786 272.502 145.035 271.618 145.289C271.177 145.41 270.735 145.537 270.288 145.659C270.26 145.665 270.233 145.674 270.207 145.685C269.74 145.811 269.273 145.938 268.801 146.07C267.491 146.416 266.155 146.766 264.805 147.106C264.698 147.132 264.596 147.157 264.49 147.187C245.018 152.052 221.129 155.596 194.691 157.307C183.11 158.053 171.036 158.449 158.632 158.449C146.116 158.449 133.941 158.048 122.268 157.286C52.5861 152.742 0.726135 135.438 0.726135 114.784C0.731622 113.527 0.923191 112.278 1.29461 111.077C1.32511 111.164 1.3556 111.245 1.3913 111.331C8.63645 130.361 60.0551 145.74 126.772 149.493C136.992 150.071 147.579 150.371 158.414 150.371C169.295 150.371 179.921 150.066 190.183 149.487C256.843 145.72 308.211 130.336 315.431 111.321C315.553 111.016 315.66 110.712 315.751 110.407C316.266 111.809 316.532 113.29 316.538 114.784Z" fill="#3F3D56"/>
<path d="M46.5438 109.318C38.0937 109.318 29.1129 107.5 29.1129 104.131C29.1129 100.762 38.0938 98.9436 46.5438 98.9436C54.9939 98.9436 63.9748 100.762 63.9748 104.131C63.9748 107.5 54.9939 109.318 46.5438 109.318ZM46.5438 99.9591C36.8699 99.9591 30.1284 102.158 30.1284 104.131C30.1284 106.104 36.87 108.303 46.5438 108.303C56.2177 108.303 62.9593 106.104 62.9593 104.131C62.9593 102.158 56.2177 99.9591 46.5438 99.9591Z" fill="#3F3D56"/>
<path d="M82.593 133.182C74.143 133.182 65.1622 131.364 65.1622 127.995C65.1622 124.625 74.143 122.807 82.593 122.807C91.0432 122.807 100.024 124.625 100.024 127.995C100.024 131.364 91.0432 133.182 82.593 133.182ZM82.593 123.823C72.9192 123.823 66.1776 126.021 66.1776 127.995C66.1776 129.968 72.9192 132.167 82.593 132.167C92.2669 132.167 99.0086 129.968 99.0086 127.995C99.0086 126.021 92.2669 123.823 82.593 123.823Z" fill="#3F3D56"/>
<path d="M269.948 109.318C261.498 109.318 252.517 107.5 252.517 104.131C252.517 100.762 261.498 98.9436 269.948 98.9436C278.398 98.9436 287.379 100.762 287.379 104.131C287.379 107.5 278.398 109.318 269.948 109.318ZM269.948 99.9591C260.274 99.9591 253.532 102.158 253.532 104.131C253.532 106.104 260.274 108.303 269.948 108.303C279.622 108.303 286.363 106.104 286.363 104.131C286.363 102.158 279.622 99.9591 269.948 99.9591Z" fill="#3F3D56"/>
<path d="M233.898 133.182C225.448 133.182 216.468 131.364 216.468 127.995C216.468 124.625 225.448 122.807 233.898 122.807C242.349 122.807 251.329 124.625 251.329 127.995C251.329 131.364 242.349 133.182 233.898 133.182ZM233.898 123.823C224.225 123.823 217.483 126.021 217.483 127.995C217.483 129.968 224.225 132.167 233.898 132.167C243.572 132.167 250.314 129.968 250.314 127.995C250.314 126.021 243.572 123.823 233.898 123.823Z" fill="#3F3D56"/>
<path d="M158.246 144.352C149.796 144.352 140.815 142.534 140.815 139.165C140.815 135.795 149.796 133.977 158.246 133.977C166.696 133.977 175.677 135.795 175.677 139.165C175.677 142.534 166.696 144.352 158.246 144.352ZM158.246 134.993C148.572 134.993 141.83 137.192 141.83 139.165C141.83 141.138 148.572 143.337 158.246 143.337C167.92 143.337 174.661 141.138 174.661 139.165C174.661 137.192 167.92 134.993 158.246 134.993Z" fill="#3F3D56"/>
<path d="M171.096 251.067C182.877 251.067 192.427 241.516 192.427 229.735C192.427 217.954 182.877 208.404 171.096 208.404C159.315 208.404 149.765 217.954 149.765 229.735C149.765 241.516 159.315 251.067 171.096 251.067Z" fill="#2F2E41"/>
<path d="M162.984 243.75L152.603 248.949L155.504 254.743L165.886 249.544L162.984 243.75Z" fill="#2F2E41"/>
<path d="M156.873 254.155C157.489 253.222 155.969 251.134 153.479 249.492C150.989 247.85 148.472 247.276 147.856 248.21C147.24 249.144 148.76 251.232 151.25 252.873C153.74 254.515 156.257 255.089 156.873 254.155Z" fill="#2F2E41"/>
<path d="M179.207 243.75L176.306 249.545L186.687 254.743L189.589 248.949L179.207 243.75Z" fill="#2F2E41"/>
<path d="M190.942 252.873C193.432 251.232 194.951 249.144 194.336 248.21C193.72 247.276 191.202 247.85 188.712 249.492C186.222 251.134 184.703 253.222 185.319 254.155C185.934 255.089 188.452 254.515 190.942 252.873Z" fill="#2F2E41"/>
<path d="M169.602 231.808C173.629 231.808 176.893 228.544 176.893 224.518C176.893 220.491 173.629 217.227 169.602 217.227C165.576 217.227 162.312 220.491 162.312 224.518C162.312 228.544 165.576 231.808 169.602 231.808Z" fill="white"/>
<path d="M171.376 223.12C172.321 222.175 172.315 220.637 171.364 219.685C170.412 218.734 168.874 218.728 167.929 219.673C166.984 220.618 166.99 222.156 167.941 223.108C168.893 224.06 170.431 224.065 171.376 223.12Z" fill="#3F3D56"/>
<path d="M187.923 206.529C188.244 198.632 181.438 191.943 172.721 191.589C164.004 191.235 156.678 197.35 156.357 205.247C156.037 213.144 162.096 214.938 170.812 215.293C179.529 215.647 187.602 214.426 187.923 206.529Z" fill="#00BFA6"/>
<path d="M200.219 240.905C201.622 239.701 199.649 235.101 195.812 230.632C191.975 226.162 187.728 223.515 186.324 224.72C184.921 225.924 186.894 230.524 190.731 234.993C194.568 239.463 198.816 242.11 200.219 240.905Z" fill="#2F2E41"/>
<path d="M151.52 234.993C155.357 230.524 157.33 225.924 155.927 224.72C154.524 223.515 150.276 226.162 146.439 230.632C142.602 235.101 140.629 239.701 142.032 240.905C143.435 242.11 147.683 239.463 151.52 234.993Z" fill="#2F2E41"/>
<path d="M176.954 238.142C177.185 239.41 176.903 240.718 176.169 241.778C175.436 242.838 174.311 243.563 173.043 243.794C171.775 244.025 170.467 243.742 169.407 243.009C168.347 242.275 167.622 241.151 167.391 239.883L167.389 239.873C166.911 237.232 168.953 236.297 171.595 235.819C174.236 235.341 176.476 235.5 176.954 238.142Z" fill="white"/>
<path d="M135.058 252.426C134.788 252.426 134.53 252.319 134.34 252.128C134.149 251.938 134.042 251.68 134.042 251.41V191.498C134.042 191.228 134.149 190.97 134.34 190.78C134.53 190.589 134.788 190.482 135.058 190.482C135.327 190.482 135.585 190.589 135.776 190.78C135.966 190.97 136.073 191.228 136.073 191.498V251.41C136.073 251.68 135.966 251.938 135.776 252.128C135.585 252.319 135.327 252.426 135.058 252.426Z" fill="#CCCCCC"/>
<path d="M119.826 306.246C119.556 306.246 119.298 306.139 119.108 305.949C118.917 305.758 118.81 305.5 118.81 305.23V261.565C118.81 261.296 118.917 261.038 119.108 260.847C119.298 260.657 119.556 260.55 119.826 260.55C120.095 260.55 120.353 260.657 120.544 260.847C120.734 261.038 120.841 261.296 120.841 261.565V305.23C120.841 305.5 120.734 305.758 120.544 305.949C120.353 306.139 120.095 306.246 119.826 306.246Z" fill="#CCCCCC"/>
<path d="M158.921 270.197C158.652 270.197 158.394 270.09 158.203 269.899C158.013 269.709 157.906 269.451 157.906 269.181V209.268C157.906 208.999 158.013 208.741 158.203 208.55C158.394 208.36 158.652 208.253 158.921 208.253C159.191 208.253 159.449 208.36 159.639 208.55C159.83 208.741 159.937 208.999 159.937 209.268V269.181C159.937 269.451 159.83 269.709 159.639 269.899C159.449 270.09 159.191 270.197 158.921 270.197Z" fill="#CCCCCC"/>
<path d="M144.197 313.354C143.928 313.354 143.669 313.247 143.479 313.057C143.289 312.866 143.182 312.608 143.182 312.339V287.967C143.182 287.698 143.288 287.44 143.479 287.249C143.669 287.059 143.928 286.952 144.197 286.952C144.466 286.952 144.725 287.059 144.915 287.249C145.105 287.44 145.212 287.698 145.212 287.967V312.339C145.212 312.608 145.105 312.866 144.915 313.057C144.725 313.247 144.466 313.354 144.197 313.354Z" fill="#CCCCCC"/>
<path d="M165.014 188.451C164.745 188.451 164.487 188.344 164.296 188.154C164.106 187.963 163.999 187.705 163.999 187.436V163.064C163.999 162.795 164.106 162.537 164.296 162.346C164.487 162.156 164.745 162.049 165.014 162.049C165.284 162.049 165.542 162.156 165.732 162.346C165.923 162.537 166.03 162.795 166.03 163.064V187.436C166.03 187.705 165.923 187.963 165.732 188.154C165.542 188.344 165.284 188.451 165.014 188.451Z" fill="#CCCCCC"/>
<path d="M114.241 199.114C113.971 199.114 113.713 199.007 113.523 198.816C113.332 198.626 113.225 198.367 113.225 198.098V173.727C113.225 173.458 113.332 173.199 113.523 173.009C113.713 172.818 113.971 172.711 114.241 172.711C114.51 172.711 114.768 172.818 114.959 173.009C115.149 173.199 115.256 173.458 115.256 173.727V198.098C115.256 198.367 115.149 198.626 114.959 198.816C114.768 199.007 114.51 199.114 114.241 199.114Z" fill="#CCCCCC"/>
<path d="M202.587 201.652C202.317 201.652 202.059 201.545 201.869 201.355C201.678 201.164 201.571 200.906 201.571 200.637V176.266C201.571 175.996 201.678 175.738 201.869 175.547C202.059 175.357 202.317 175.25 202.587 175.25C202.856 175.25 203.114 175.357 203.305 175.547C203.495 175.738 203.602 175.996 203.602 176.266V200.637C203.602 200.906 203.495 201.164 203.305 201.355C203.114 201.545 202.856 201.652 202.587 201.652Z" fill="#CCCCCC"/>
<path d="M200.556 277.813C200.286 277.813 200.028 277.706 199.838 277.515C199.647 277.325 199.54 277.067 199.54 276.797V247.349C199.54 247.079 199.647 246.821 199.838 246.63C200.028 246.44 200.286 246.333 200.556 246.333C200.825 246.333 201.083 246.44 201.274 246.63C201.464 246.821 201.571 247.079 201.571 247.349V276.797C201.571 277.067 201.464 277.325 201.274 277.515C201.083 277.706 200.825 277.813 200.556 277.813Z" fill="#CCCCCC"/>
<path d="M180.246 303.707C179.977 303.707 179.719 303.6 179.528 303.41C179.338 303.219 179.231 302.961 179.231 302.692V259.027C179.231 258.757 179.338 258.499 179.528 258.308C179.719 258.118 179.977 258.011 180.246 258.011C180.516 258.011 180.774 258.118 180.964 258.308C181.155 258.499 181.262 258.757 181.262 259.027V302.692C181.262 302.961 181.155 303.219 180.964 303.41C180.774 303.6 180.516 303.707 180.246 303.707Z" fill="#CCCCCC"/>
<path d="M184.308 229.07C184.039 229.07 183.781 228.963 183.59 228.773C183.4 228.582 183.293 228.324 183.293 228.055V168.142C183.293 167.872 183.4 167.614 183.59 167.424C183.781 167.233 184.039 167.126 184.308 167.126C184.578 167.126 184.836 167.233 185.026 167.424C185.217 167.614 185.324 167.872 185.324 168.142V228.055C185.324 228.324 185.217 228.582 185.026 228.773C184.836 228.963 184.578 229.07 184.308 229.07Z" fill="#CCCCCC"/>
<path d="M308.802 356.561C310.255 355.344 308.291 350.604 304.414 345.975C300.538 341.345 296.217 338.578 294.764 339.795C293.31 341.012 295.275 345.752 299.151 350.381C303.027 355.011 307.348 357.778 308.802 356.561Z" fill="#2F2E41"/>
<path d="M299.27 351.296C303.089 339.839 296.897 327.455 285.44 323.637C273.983 319.818 261.599 326.009 257.78 337.466C253.961 348.923 260.153 361.307 271.61 365.126C283.067 368.945 295.451 362.753 299.27 351.296Z" fill="#2F2E41"/>
<path d="M287.78 361.543H281.137V373.445H287.78V361.543Z" fill="#2F2E41"/>
<path d="M274.494 361.543H267.851V373.445H274.494V361.543Z" fill="#2F2E41"/>
<path d="M282.244 375.659C285.302 375.659 287.78 374.73 287.78 373.583C287.78 372.437 285.302 371.507 282.244 371.507C279.187 371.507 276.708 372.437 276.708 373.583C276.708 374.73 279.187 375.659 282.244 375.659Z" fill="#2F2E41"/>
<path d="M268.958 375.382C272.016 375.382 274.494 374.453 274.494 373.306C274.494 372.16 272.016 371.23 268.958 371.23C265.901 371.23 263.422 372.16 263.422 373.306C263.422 374.453 265.901 375.382 268.958 375.382Z" fill="#2F2E41"/>
<path d="M271.659 316.894C273.611 309.031 282.23 304.403 290.91 306.558C299.589 308.714 305.042 316.835 303.089 324.698C301.137 332.562 294.659 332.587 285.98 330.432C277.3 328.277 269.706 324.757 271.659 316.894Z" fill="#CCCCCC"/>
<path d="M263.774 338.92C264.587 337.207 260.822 333.721 255.366 331.134C249.911 328.546 244.829 327.837 244.017 329.55C243.205 331.262 246.969 334.748 252.425 337.336C257.881 339.924 262.962 340.633 263.774 338.92Z" fill="#2F2E41"/>
<path d="M275.256 347.058C279.282 347.058 282.546 343.793 282.546 339.767C282.546 335.741 279.282 332.477 275.256 332.477C271.229 332.477 267.965 335.741 267.965 339.767C267.965 343.793 271.229 347.058 275.256 347.058Z" fill="white"/>
<path d="M272.259 339.584C273.601 339.584 274.689 338.496 274.689 337.154C274.689 335.812 273.601 334.724 272.259 334.724C270.917 334.724 269.829 335.812 269.829 337.154C269.829 338.496 270.917 339.584 272.259 339.584Z" fill="#3F3D56"/>
<path d="M275.193 358.035C276.876 358.035 278.239 356.671 278.239 354.989C278.239 353.306 276.876 351.942 275.193 351.942C273.511 351.942 272.147 353.306 272.147 354.989C272.147 356.671 273.511 358.035 275.193 358.035Z" fill="white"/>
<path d="M340.961 375.806H221.135C221 375.806 220.871 375.752 220.776 375.657C220.681 375.562 220.627 375.433 220.627 375.298C220.627 375.163 220.681 375.034 220.776 374.939C220.871 374.844 221 374.79 221.135 374.79H340.961C341.095 374.79 341.225 374.844 341.32 374.939C341.415 375.034 341.469 375.163 341.469 375.298C341.469 375.433 341.415 375.562 341.32 375.657C341.225 375.752 341.095 375.806 340.961 375.806Z" fill="#3F3D56"/>
</g>
<defs>
<clipPath id="clip0_808_454">
<rect width="341.469" height="374.909" fill="white" transform="translate(0 0.896545)"/>
</clipPath>
</defs>
</svg>
