<svg width="1518" height="448" viewBox="0 0 1518 448" fill="none" xmlns="http://www.w3.org/2000/svg">
<g clip-path="url(#clip0_81_2)">
<path d="M557.025 331.426C543.874 331.426 531.199 329.901 519.001 326.851C506.993 323.612 497.463 319.608 490.41 314.844L505.277 282.822C512.33 287.207 520.621 290.827 530.151 293.687C539.871 296.356 549.402 297.689 558.741 297.689C569.033 297.689 576.276 296.451 580.469 293.974C584.853 291.495 587.045 288.064 587.045 283.681C587.045 280.058 585.33 277.39 581.899 275.675C578.659 273.769 574.275 272.339 568.747 271.387C563.22 270.433 557.121 269.481 550.45 268.527C543.969 267.575 537.394 266.336 530.723 264.812C524.052 263.095 517.952 260.618 512.425 257.377C506.897 254.138 502.418 249.753 498.988 244.226C495.747 238.699 494.127 231.551 494.127 222.783C494.127 213.063 496.891 204.486 502.418 197.052C508.136 189.619 516.332 183.806 527.006 179.612C537.68 175.229 550.45 173.037 565.317 173.037C575.8 173.037 586.473 174.18 597.338 176.467C608.202 178.755 617.255 182.09 624.498 186.474L609.631 218.208C602.198 213.825 594.669 210.871 587.045 209.346C579.612 207.631 572.369 206.773 565.317 206.773C555.405 206.773 548.162 208.107 543.588 210.776C539.014 213.444 536.727 216.875 536.727 221.068C536.727 224.881 538.347 227.739 541.587 229.645C545.018 231.551 549.497 233.076 555.024 234.219C560.552 235.363 566.556 236.412 573.036 237.364C579.707 238.126 586.378 239.365 593.049 241.081C599.72 242.796 605.724 245.275 611.061 248.514C616.588 251.564 621.067 255.852 624.498 261.381C627.929 266.718 629.644 273.769 629.644 282.537C629.644 292.068 626.785 300.549 621.067 307.982C615.349 315.225 607.058 320.943 596.194 325.137C585.52 329.328 572.464 331.426 557.025 331.426ZM694.043 297.689L695.187 243.369L766.949 175.324H820.126L751.224 245.37L728.066 264.239L694.043 297.689ZM657.162 329.139V117H701.763V329.139H657.162ZM771.81 329.139L719.775 264.525L747.793 229.931L825.844 329.139H771.81ZM939.392 173.037C951.591 173.037 962.455 175.514 971.985 180.47C981.705 185.235 989.33 192.668 994.856 202.77C1000.38 212.682 1003.15 225.451 1003.15 241.081V329.139H958.548V247.943C958.548 235.555 955.783 226.405 950.256 220.496C944.919 214.588 937.294 211.633 927.385 211.633C920.331 211.633 913.947 213.158 908.229 216.207C902.7 219.067 898.317 223.545 895.078 229.645C892.028 235.744 890.503 243.558 890.503 253.089V329.139H845.903V117H890.503V217.924L880.497 205.058C886.024 194.765 893.934 186.855 904.225 181.328C914.518 175.8 926.241 173.037 939.392 173.037ZM1117.88 331.426C1101.49 331.426 1086.91 327.995 1074.14 321.133C1061.56 314.271 1051.55 304.932 1044.12 293.115C1036.88 281.107 1033.26 267.48 1033.26 252.231C1033.26 236.793 1036.88 223.164 1044.12 211.347C1051.55 199.34 1061.56 190 1074.14 183.329C1086.91 176.467 1101.49 173.037 1117.88 173.037C1134.08 173.037 1148.57 176.467 1161.34 183.329C1174.11 190 1184.12 199.244 1191.36 211.062C1198.6 222.88 1202.22 236.602 1202.22 252.231C1202.22 267.48 1198.6 281.107 1191.36 293.115C1184.12 304.932 1174.11 314.271 1161.34 321.133C1148.57 327.995 1134.08 331.426 1117.88 331.426ZM1117.88 294.831C1125.32 294.831 1131.99 293.115 1137.9 289.684C1143.8 286.253 1148.47 281.394 1151.91 275.103C1155.34 268.624 1157.05 260.999 1157.05 252.231C1157.05 243.274 1155.34 235.649 1151.91 229.358C1148.47 223.069 1143.8 218.208 1137.9 214.778C1131.99 211.347 1125.32 209.632 1117.88 209.632C1110.45 209.632 1103.78 211.347 1097.87 214.778C1091.96 218.208 1087.2 223.069 1083.58 229.358C1080.15 235.649 1078.43 243.274 1078.43 252.231C1078.43 260.999 1080.15 268.624 1083.58 275.103C1087.2 281.394 1091.96 286.253 1097.87 289.684C1103.78 293.115 1110.45 294.831 1117.88 294.831ZM1232.04 329.139V117H1276.64V329.139H1232.04ZM1394.37 331.426C1376.83 331.426 1361.39 327.995 1348.05 321.133C1334.9 314.271 1324.7 304.932 1317.46 293.115C1310.22 281.107 1306.59 267.48 1306.59 252.231C1306.59 236.793 1310.12 223.164 1317.17 211.347C1324.42 199.34 1334.23 190 1346.62 183.329C1359.01 176.467 1373.02 173.037 1388.65 173.037C1403.7 173.037 1417.24 176.277 1429.25 182.757C1441.45 189.047 1451.07 198.196 1458.12 210.204C1465.17 222.021 1468.7 236.22 1468.7 252.802C1468.7 254.519 1468.6 256.52 1468.41 258.807C1468.22 260.903 1468.03 262.906 1467.84 264.812H1342.9V238.794H1444.4L1427.25 246.513C1427.25 238.508 1425.62 231.551 1422.38 225.643C1419.14 219.733 1414.67 215.159 1408.95 211.919C1403.23 208.488 1396.56 206.773 1388.93 206.773C1381.31 206.773 1374.54 208.488 1368.63 211.919C1362.92 215.159 1358.44 219.83 1355.2 225.928C1351.96 231.837 1350.34 238.889 1350.34 247.086V253.946C1350.34 262.333 1352.15 269.767 1355.77 276.246C1359.58 282.537 1364.82 287.396 1371.49 290.827C1378.35 294.069 1386.36 295.688 1395.51 295.688C1403.7 295.688 1410.85 294.45 1416.95 291.971C1423.24 289.494 1428.96 285.777 1434.11 280.821L1457.84 306.552C1450.78 314.558 1441.92 320.752 1431.25 325.137C1420.57 329.328 1408.28 331.426 1394.37 331.426Z" fill="white"/>
<mask id="mask0_81_2" style="mask-type:luminance" maskUnits="userSpaceOnUse" x="1284" y="3" width="210" height="132">
<path d="M1493.07 3H1284.02V134.757H1493.07V3Z" fill="white"/>
</mask>
<g mask="url(#mask0_81_2)">
<path d="M1394.99 295.152C1377.46 295.152 1362.02 291.721 1348.68 284.859C1335.52 277.997 1325.33 268.659 1318.08 256.841C1310.84 244.833 1307.22 231.206 1307.22 215.958C1307.22 200.519 1310.75 186.89 1317.8 175.074C1325.04 163.066 1334.86 153.726 1347.25 147.055C1359.63 140.194 1373.64 136.763 1389.27 136.763C1404.33 136.763 1417.86 140.003 1429.87 146.483C1442.07 152.773 1451.7 161.922 1458.75 173.93C1465.8 185.747 1469.33 199.947 1469.33 216.529C1469.33 218.245 1469.23 220.246 1469.04 222.533C1468.85 224.629 1468.66 226.632 1468.47 228.538H1343.53V202.52H1445.02L1427.87 210.239C1427.87 202.234 1426.25 195.277 1423.01 189.369C1419.77 183.459 1415.29 178.885 1409.57 175.645C1403.85 172.215 1397.18 170.499 1389.56 170.499C1381.93 170.499 1375.17 172.215 1369.26 175.645C1363.54 178.885 1359.06 183.556 1355.82 189.654C1352.58 195.563 1350.96 202.615 1350.96 210.812V217.672C1350.96 226.059 1352.77 233.494 1356.4 239.973C1360.21 246.263 1365.45 251.123 1372.12 254.554C1378.98 257.795 1386.99 259.415 1396.13 259.415C1404.33 259.415 1411.48 258.176 1417.58 255.697C1423.87 253.22 1429.59 249.503 1434.73 244.547L1458.46 270.278C1451.41 278.284 1442.55 284.478 1431.87 288.863C1421.2 293.055 1408.9 295.152 1394.99 295.152ZM1362.4 119.323L1401 78.1531H1449.03L1397.28 119.323H1362.4Z" fill="#BAF722"/>
</g>
</g>
<rect width="342.221" height="337.297" transform="translate(65 55.7028)" fill="#086719"/>
<path d="M342.396 140.027V306.919L254.558 238.405L189.558 301.649V249.824L251.923 184.824H131.585V140.027H342.396Z" fill="#BAF722" stroke="#BAF722" stroke-width="1.75676"/>
<defs>
<clipPath id="clip0_81_2">
<rect width="1008.38" height="361.892" fill="white" transform="translate(484.692 3)"/>
</clipPath>
</defs>
</svg>
