<svg width="48" height="48" viewBox="0 0 48 48" fill="none" xmlns="http://www.w3.org/2000/svg">
<circle cx="24" cy="24" r="23.5" stroke="#47FDBB"/>
<path d="M33.3844 23.3625L19.8937 15.1125C19.7802 15.0424 19.65 15.004 19.5166 15.001C19.3832 14.9981 19.2514 15.0307 19.1349 15.0957C19.0183 15.1607 18.9212 15.2556 18.8535 15.3706C18.7859 15.4856 18.7501 15.6166 18.75 15.75V32.25C18.7501 32.3834 18.7859 32.5144 18.8535 32.6294C18.9212 32.7444 19.0183 32.8393 19.1349 32.9043C19.2514 32.9692 19.3832 33.0019 19.5166 32.999C19.65 32.996 19.7802 32.9576 19.8937 32.8875L33.3844 24.6375C33.4952 24.572 33.5869 24.4787 33.6507 24.367C33.7145 24.2552 33.748 24.1287 33.748 24C33.748 23.8713 33.7145 23.7448 33.6507 23.633C33.5869 23.5212 33.4952 23.428 33.3844 23.3625Z" fill="#47FDBB"/>
</svg>
