<svg width="16" height="18" viewBox="0 0 16 18" fill="none" xmlns="http://www.w3.org/2000/svg">
<path d="M15.3844 8.3625L1.89375 0.112498C1.78018 0.0424448 1.64998 0.00395781 1.51658 0.00100738C1.38318 -0.00194304 1.25141 0.0307498 1.13486 0.0957133C1.0183 0.160677 0.921193 0.255559 0.853541 0.370572C0.78589 0.485585 0.750147 0.616564 0.75 0.749998V17.25C0.750147 17.3834 0.78589 17.5144 0.853541 17.6294C0.921193 17.7444 1.0183 17.8393 1.13486 17.9043C1.25141 17.9692 1.38318 18.0019 1.51658 17.999C1.64998 17.996 1.78018 17.9576 1.89375 17.8875L15.3844 9.6375C15.4952 9.57199 15.5869 9.47875 15.6507 9.36696C15.7145 9.25517 15.748 9.12869 15.748 9C15.748 8.8713 15.7145 8.74483 15.6507 8.63304C15.5869 8.52125 15.4952 8.42801 15.3844 8.3625Z" fill="#47FDBB"/>
</svg>
